<?xml version="1.0" encoding="utf-8"?>
<!-- Generator: Adobe Illustrator 18.1.1, SVG Export Plug-In . SVG Version: 6.00 Build 0)  -->
<!DOCTYPE svg PUBLIC "-//W3C//DTD SVG 1.1//EN" "http://www.w3.org/Graphics/SVG/1.1/DTD/svg11.dtd">
<svg version="1.1" xmlns="http://www.w3.org/2000/svg" xmlns:xlink="http://www.w3.org/1999/xlink" x="0px" y="0px"
	 viewBox="0 0 850 500" enable-background="new 0 0 850 500" xml:space="preserve">
<g id="Layer_1">
</g>
<g id="Layer_2">
	<g>
		<g>
			<g>
				<rect x="53.3" y="85" fill="#71C23D" width="31.2" height="33"/>
				<g>
					<path fill="#FFFFFF" d="M62.5,109.1h-1.9V95h1.9V109.1z"/>
					<path fill="#FFFFFF" d="M74,105.5H68l-1.3,3.6h-2L70.2,95h1.6l5.4,14.2h-2L74,105.5z M68.6,103.9h4.8l-2.3-6.5H71L68.6,103.9z"
						/>
				</g>
			</g>
			<g>
				<rect x="95.5" y="85" fill="#038B27" width="136.3" height="33"/>
				<g>
					<path fill="#FFFFFF" d="M111.5,105.6c0-0.6-0.2-1.2-0.7-1.6c-0.5-0.4-1.3-0.8-2.6-1.1c-1.5-0.4-2.7-0.9-3.5-1.6
						c-0.8-0.7-1.3-1.6-1.3-2.6c0-1.1,0.5-2,1.4-2.8s2.1-1.1,3.5-1.1c1.6,0,2.8,0.4,3.7,1.3c0.9,0.9,1.4,1.8,1.3,3l0,0.1h-1.8
						c0-0.8-0.3-1.5-0.8-2c-0.5-0.5-1.3-0.8-2.4-0.8c-1,0-1.7,0.2-2.2,0.6c-0.5,0.4-0.8,1-0.8,1.7c0,0.6,0.3,1.1,0.8,1.5
						s1.4,0.8,2.7,1.1c1.5,0.4,2.6,0.9,3.4,1.6c0.8,0.7,1.2,1.6,1.2,2.7c0,1.1-0.5,2.1-1.4,2.8c-0.9,0.7-2.2,1-3.7,1
						c-1.4,0-2.7-0.4-3.8-1.2s-1.6-1.8-1.6-3.1l0-0.1h1.8c0,0.9,0.3,1.6,1,2.1c0.7,0.5,1.5,0.7,2.5,0.7c1,0,1.7-0.2,2.3-0.6
						S111.5,106.3,111.5,105.6z"/>
					<path fill="#FFFFFF" d="M124.6,102.6h-6.5v5.1h7.5v1.5h-9.4V95h9.3v1.5h-7.4v4.6h6.5V102.6z"/>
					<path fill="#FFFFFF" d="M129.7,103v6.1h-1.9V95h5.1c1.6,0,2.7,0.3,3.6,1s1.2,1.7,1.2,3c0,0.7-0.2,1.4-0.6,1.9
						c-0.4,0.5-0.9,1-1.7,1.3c0.8,0.3,1.3,0.7,1.7,1.2c0.3,0.6,0.5,1.3,0.5,2.1v1.3c0,0.4,0,0.8,0.1,1.2c0.1,0.4,0.3,0.6,0.5,0.9
						v0.2h-2c-0.3-0.2-0.4-0.5-0.5-1c-0.1-0.4-0.1-0.9-0.1-1.3v-1.3c0-0.8-0.2-1.4-0.7-1.8c-0.4-0.5-1-0.7-1.8-0.7H129.7z
						 M129.7,101.5h3c1.1,0,1.9-0.2,2.3-0.6c0.5-0.4,0.7-1,0.7-1.9c0-0.8-0.2-1.4-0.7-1.9c-0.5-0.4-1.2-0.7-2.2-0.7h-3.2V101.5z"/>
					<path fill="#FFFFFF" d="M145,105.6l0.3,1.1h0.1l0.3-1.1l3.7-10.6h2.1l-5.3,14.2h-1.6L139.3,95h2.1L145,105.6z"/>
					<path fill="#FFFFFF" d="M161.8,102.6h-6.5v5.1h7.5v1.5h-9.4V95h9.3v1.5h-7.4v4.6h6.5V102.6z"/>
					<path fill="#FFFFFF" d="M167,103v6.1h-1.9V95h5.1c1.6,0,2.7,0.3,3.6,1s1.2,1.7,1.2,3c0,0.7-0.2,1.4-0.6,1.9
						c-0.4,0.5-0.9,1-1.7,1.3c0.8,0.3,1.3,0.7,1.7,1.2c0.3,0.6,0.5,1.3,0.5,2.1v1.3c0,0.4,0,0.8,0.1,1.2c0.1,0.4,0.3,0.6,0.5,0.9
						v0.2h-2c-0.3-0.2-0.4-0.5-0.5-1c-0.1-0.4-0.1-0.9-0.1-1.3v-1.3c0-0.8-0.2-1.4-0.7-1.8c-0.4-0.5-1-0.7-1.8-0.7H167z M167,101.5
						h3c1.1,0,1.9-0.2,2.3-0.6c0.5-0.4,0.7-1,0.7-1.9c0-0.8-0.2-1.4-0.7-1.9c-0.5-0.4-1.2-0.7-2.2-0.7H167V101.5z"/>
					<path fill="#FFFFFF" d="M181.6,103.9h-4.8v-1.5h4.8V103.9z"/>
					<path fill="#FFFFFF" d="M191.5,105.6c0-0.6-0.2-1.2-0.7-1.6c-0.5-0.4-1.3-0.8-2.6-1.1c-1.5-0.4-2.7-0.9-3.5-1.6
						c-0.8-0.7-1.3-1.6-1.3-2.6c0-1.1,0.5-2,1.4-2.8s2.1-1.1,3.5-1.1c1.6,0,2.8,0.4,3.7,1.3c0.9,0.9,1.4,1.8,1.3,3l0,0.1h-1.8
						c0-0.8-0.3-1.5-0.8-2c-0.5-0.5-1.3-0.8-2.4-0.8c-1,0-1.7,0.2-2.2,0.6c-0.5,0.4-0.8,1-0.8,1.7c0,0.6,0.3,1.1,0.8,1.5
						s1.4,0.8,2.7,1.1c1.5,0.4,2.6,0.9,3.4,1.6c0.8,0.7,1.2,1.6,1.2,2.7c0,1.1-0.5,2.1-1.4,2.8c-0.9,0.7-2.2,1-3.7,1
						c-1.4,0-2.7-0.4-3.8-1.2s-1.6-1.8-1.6-3.1l0-0.1h1.8c0,0.9,0.3,1.6,1,2.1c0.7,0.5,1.5,0.7,2.5,0.7c1,0,1.7-0.2,2.3-0.6
						S191.5,106.3,191.5,105.6z"/>
					<path fill="#FFFFFF" d="M198.2,109.1h-1.9V95h1.9V109.1z"/>
					<path fill="#FFFFFF" d="M201.8,109.1V95h4.3c1.9,0,3.3,0.6,4.5,1.7c1.1,1.1,1.7,2.6,1.7,4.4v1.9c0,1.8-0.6,3.3-1.7,4.4
						s-2.6,1.7-4.5,1.7H201.8z M203.7,96.5v11.1h2.4c1.3,0,2.3-0.4,3.1-1.3c0.8-0.9,1.1-2,1.1-3.3v-2c0-1.3-0.4-2.4-1.1-3.3
						c-0.8-0.9-1.8-1.3-3.1-1.3H203.7z"/>
					<path fill="#FFFFFF" d="M223.3,102.6h-6.5v5.1h7.5v1.5h-9.4V95h9.3v1.5h-7.4v4.6h6.5V102.6z"/>
				</g>
			</g>
			<g>
				<rect x="242.8" y="85" fill="#58A9F1" width="120.3" height="33"/>
				<g>
					<path fill="#FFFFFF" d="M259.7,102.9h-6.5v6.3h-1.9V95h9.4v1.5h-7.5v4.9h6.5V102.9z"/>
					<path fill="#FFFFFF" d="M264.9,103v6.1H263V95h5.1c1.6,0,2.7,0.3,3.6,1s1.2,1.7,1.2,3c0,0.7-0.2,1.4-0.6,1.9
						c-0.4,0.5-0.9,1-1.7,1.3c0.8,0.3,1.3,0.7,1.7,1.2c0.3,0.6,0.5,1.3,0.5,2.1v1.3c0,0.4,0,0.8,0.1,1.2c0.1,0.4,0.3,0.6,0.5,0.9
						v0.2h-2c-0.3-0.2-0.4-0.5-0.5-1c-0.1-0.4-0.1-0.9-0.1-1.3v-1.3c0-0.8-0.2-1.4-0.7-1.8c-0.4-0.5-1-0.7-1.8-0.7H264.9z
						 M264.9,101.5h3c1.1,0,1.9-0.2,2.3-0.6c0.5-0.4,0.7-1,0.7-1.9c0-0.8-0.2-1.4-0.7-1.9c-0.5-0.4-1.2-0.7-2.2-0.7h-3.2V101.5z"/>
					<path fill="#FFFFFF" d="M286.9,103.3c0,1.7-0.5,3.2-1.6,4.3c-1.1,1.1-2.5,1.7-4.2,1.7c-1.7,0-3-0.6-4-1.7
						c-1-1.1-1.6-2.6-1.6-4.3v-2.5c0-1.7,0.5-3.2,1.6-4.3c1-1.1,2.4-1.7,4-1.7c1.7,0,3.1,0.6,4.2,1.7c1.1,1.1,1.6,2.6,1.6,4.3V103.3
						z M285,100.8c0-1.3-0.4-2.4-1.1-3.2c-0.7-0.8-1.6-1.2-2.8-1.2c-1.1,0-2,0.4-2.7,1.2c-0.7,0.8-1,1.9-1,3.2v2.5
						c0,1.3,0.3,2.4,1,3.2c0.7,0.8,1.6,1.2,2.7,1.2c1.2,0,2.1-0.4,2.8-1.2s1-1.9,1-3.2V100.8z"/>
					<path fill="#FFFFFF" d="M300.5,109.1h-1.9l-6.8-11l-0.1,0v10.9h-1.9V95h1.9l6.8,10.9l0.1,0V95h1.9V109.1z"/>
					<path fill="#FFFFFF" d="M313.3,96.5h-4.6v12.7h-1.9V96.5h-4.5V95h11V96.5z"/>
					<path fill="#FFFFFF" d="M316.1,103.9h-4.8v-1.5h4.8V103.9z"/>
					<path fill="#FFFFFF" d="M326.6,102.6h-6.5v5.1h7.5v1.5h-9.4V95h9.3v1.5h-7.4v4.6h6.5V102.6z"/>
					<path fill="#FFFFFF" d="M340.5,109.1h-1.9l-6.8-11l-0.1,0v10.9h-1.9V95h1.9l6.8,10.9l0.1,0V95h1.9V109.1z"/>
					<path fill="#FFFFFF" d="M344,109.1V95h4.3c1.9,0,3.3,0.6,4.5,1.7c1.1,1.1,1.7,2.6,1.7,4.4v1.9c0,1.8-0.6,3.3-1.7,4.4
						s-2.6,1.7-4.5,1.7H344z M346,96.5v11.1h2.4c1.3,0,2.3-0.4,3.1-1.3c0.8-0.9,1.1-2,1.1-3.3v-2c0-1.3-0.4-2.4-1.1-3.3
						c-0.8-0.9-1.8-1.3-3.1-1.3H346z"/>
				</g>
			</g>
			<g>
				<rect x="374.1" y="85" fill="#F5D427" width="109.8" height="33"/>
				<g>
					<path fill="#FFFFFF" d="M393.9,95v9.6c0,1.5-0.5,2.7-1.5,3.5c-1,0.8-2.3,1.2-3.9,1.2c-1.6,0-2.8-0.4-3.8-1.2s-1.5-2-1.5-3.5V95
						h1.9v9.6c0,1.1,0.3,1.9,0.9,2.4c0.6,0.6,1.4,0.8,2.4,0.8c1.1,0,1.9-0.3,2.5-0.8s1-1.4,1-2.4V95H393.9z"/>
					<path fill="#FFFFFF" d="M399.1,109.1h-1.9V95h1.9V109.1z"/>
					<path fill="#FFFFFF" d="M407.6,109.1V95h4.3c1.9,0,3.3,0.6,4.5,1.7c1.1,1.1,1.7,2.6,1.7,4.4v1.9c0,1.8-0.6,3.3-1.7,4.4
						s-2.6,1.7-4.5,1.7H407.6z M409.6,96.5v11.1h2.4c1.3,0,2.3-0.4,3.1-1.3c0.8-0.9,1.1-2,1.1-3.3v-2c0-1.3-0.4-2.4-1.1-3.3
						c-0.8-0.9-1.8-1.3-3.1-1.3H409.6z"/>
					<path fill="#FFFFFF" d="M429.2,102.6h-6.5v5.1h7.5v1.5h-9.4V95h9.3v1.5h-7.4v4.6h6.5V102.6z"/>
					<path fill="#FFFFFF" d="M440.1,105.6c0-0.6-0.2-1.2-0.7-1.6c-0.5-0.4-1.3-0.8-2.6-1.1c-1.5-0.4-2.7-0.9-3.5-1.6
						c-0.8-0.7-1.3-1.6-1.3-2.6c0-1.1,0.5-2,1.4-2.8c0.9-0.7,2.1-1.1,3.5-1.1c1.5,0,2.8,0.4,3.7,1.3c0.9,0.9,1.4,1.8,1.3,3l0,0.1
						h-1.8c0-0.8-0.3-1.5-0.8-2s-1.3-0.8-2.4-0.8c-1,0-1.7,0.2-2.2,0.6c-0.5,0.4-0.8,1-0.8,1.7c0,0.6,0.3,1.1,0.8,1.5
						c0.6,0.4,1.4,0.8,2.7,1.1c1.5,0.4,2.6,0.9,3.4,1.6c0.8,0.7,1.2,1.6,1.2,2.7c0,1.1-0.5,2.1-1.4,2.8c-0.9,0.7-2.2,1-3.7,1
						c-1.4,0-2.7-0.4-3.8-1.2c-1.1-0.8-1.6-1.8-1.6-3.1l0-0.1h1.8c0,0.9,0.3,1.6,1,2.1c0.7,0.5,1.5,0.7,2.5,0.7c1,0,1.7-0.2,2.3-0.6
						S440.1,106.3,440.1,105.6z"/>
					<path fill="#FFFFFF" d="M446.9,109.1h-1.9V95h1.9V109.1z"/>
					<path fill="#FFFFFF" d="M460.7,107.3c-0.3,0.5-0.9,1-1.8,1.4c-0.8,0.4-1.9,0.7-3.2,0.7c-1.7,0-3.1-0.5-4.2-1.6
						s-1.7-2.5-1.7-4.2v-2.9c0-1.7,0.5-3.1,1.5-4.2c1-1.1,2.4-1.6,4-1.6c1.6,0,2.9,0.4,3.8,1.2c0.9,0.8,1.4,1.8,1.4,3.1l0,0.1h-1.8
						c-0.1-0.8-0.4-1.5-0.9-2c-0.6-0.5-1.4-0.8-2.5-0.8c-1.1,0-2,0.4-2.6,1.2c-0.7,0.8-1,1.8-1,3.1v2.9c0,1.3,0.4,2.3,1.1,3.1
						c0.7,0.8,1.7,1.2,2.8,1.2c0.8,0,1.5-0.1,2-0.3c0.5-0.2,0.9-0.5,1.1-0.7v-3.2h-3.1v-1.5h5V107.3z"/>
					<path fill="#FFFFFF" d="M474.8,109.1h-1.9l-6.8-11l-0.1,0v10.9h-1.9V95h1.9l6.8,10.9l0.1,0V95h1.9V109.1z"/>
				</g>
			</g>
			<g>
				<rect x="494.9" y="85" fill="#E79A25" width="104.1" height="33"/>
				<g>
					<path fill="#FFFFFF" d="M513.8,104.6L513.8,104.6c0,1.4-0.4,2.5-1.4,3.4c-1,0.9-2.2,1.3-3.8,1.3c-1.6,0-2.9-0.6-3.9-1.7
						c-1-1.1-1.5-2.6-1.5-4.3v-2.5c0-1.7,0.5-3.2,1.5-4.3c1-1.1,2.3-1.7,3.9-1.7c1.6,0,2.9,0.4,3.8,1.3c0.9,0.9,1.4,2,1.4,3.4l0,0.1
						H512c0-1-0.3-1.8-0.9-2.4c-0.6-0.6-1.4-0.9-2.5-0.9c-1.1,0-1.9,0.4-2.6,1.3c-0.6,0.9-1,1.9-1,3.2v2.5c0,1.3,0.3,2.4,1,3.2
						c0.6,0.9,1.5,1.3,2.6,1.3c1.1,0,1.9-0.3,2.5-0.9c0.6-0.6,0.9-1.4,0.9-2.4H513.8z"/>
					<path fill="#FFFFFF" d="M527.1,103.3c0,1.7-0.5,3.2-1.6,4.3c-1.1,1.1-2.5,1.7-4.2,1.7c-1.7,0-3-0.6-4-1.7
						c-1-1.1-1.6-2.6-1.6-4.3v-2.5c0-1.7,0.5-3.2,1.6-4.3c1-1.1,2.4-1.7,4-1.7c1.7,0,3.1,0.6,4.2,1.7c1.1,1.1,1.6,2.6,1.6,4.3V103.3
						z M525.2,100.8c0-1.3-0.4-2.4-1.1-3.2c-0.7-0.8-1.6-1.2-2.8-1.2c-1.1,0-2,0.4-2.7,1.2c-0.7,0.8-1,1.9-1,3.2v2.5
						c0,1.3,0.3,2.4,1,3.2c0.7,0.8,1.6,1.2,2.7,1.2c1.2,0,2.1-0.4,2.8-1.2c0.7-0.8,1-1.9,1-3.2V100.8z"/>
					<path fill="#FFFFFF" d="M540.7,109.1h-1.9l-6.8-11l-0.1,0v10.9H530V95h1.9l6.8,10.9l0.1,0V95h1.9V109.1z"/>
					<path fill="#FFFFFF" d="M553.5,96.5H549v12.7H547V96.5h-4.5V95h11V96.5z"/>
					<path fill="#FFFFFF" d="M564,102.6h-6.5v5.1h7.5v1.5h-9.4V95h9.3v1.5h-7.4v4.6h6.5V102.6z"/>
					<path fill="#FFFFFF" d="M578,109.1H576l-6.8-11l-0.1,0v10.9h-1.9V95h1.9l6.8,10.9l0.1,0V95h1.9V109.1z"/>
					<path fill="#FFFFFF" d="M590.8,96.5h-4.6v12.7h-1.9V96.5h-4.5V95h11V96.5z"/>
				</g>
			</g>
			<g>
				<rect x="610" y="85" fill="#DE5F5A" width="125.6" height="33"/>
				<g>
					<path fill="#FFFFFF" d="M620.2,95l4.5,11.5h0.1l4.5-11.5h2.5v14.2h-1.9v-5.6l0.2-5.8l0,0l-4.6,11.4h-1.3l-4.6-11.3l0,0l0.2,5.7
						v5.6h-1.9V95H620.2z"/>
					<path fill="#FFFFFF" d="M643.1,105.5h-5.9l-1.3,3.6h-2l5.5-14.2h1.6l5.4,14.2h-2L643.1,105.5z M637.7,103.9h4.8l-2.3-6.5h-0.1
						L637.7,103.9z"/>
					<path fill="#FFFFFF" d="M650.2,103v6.1h-1.9V95h5.1c1.5,0,2.7,0.3,3.6,1s1.2,1.7,1.2,3c0,0.7-0.2,1.4-0.6,1.9
						c-0.4,0.5-0.9,1-1.7,1.3c0.8,0.3,1.3,0.7,1.7,1.2c0.3,0.6,0.5,1.3,0.5,2.1v1.3c0,0.4,0,0.8,0.1,1.2c0.1,0.4,0.3,0.6,0.5,0.9
						v0.2h-2c-0.3-0.2-0.4-0.5-0.5-1c-0.1-0.4-0.1-0.9-0.1-1.3v-1.3c0-0.8-0.2-1.4-0.7-1.8c-0.4-0.5-1-0.7-1.8-0.7H650.2z
						 M650.2,101.5h3c1.1,0,1.9-0.2,2.3-0.6c0.5-0.4,0.7-1,0.7-1.9c0-0.8-0.2-1.4-0.7-1.9c-0.5-0.4-1.2-0.7-2.2-0.7h-3.2V101.5z"/>
					<path fill="#FFFFFF" d="M665.1,102.7h-1.7v6.4h-1.9V95h1.9v6.3h1.5L670,95h2.1l0,0l-5.5,6.8l5.9,7.3l0,0h-2.3L665.1,102.7z"/>
					<path fill="#FFFFFF" d="M682.7,102.6h-6.5v5.1h7.5v1.5h-9.4V95h9.3v1.5h-7.4v4.6h6.5V102.6z"/>
					<path fill="#FFFFFF" d="M695.8,96.5h-4.6v12.7h-1.9V96.5h-4.5V95h11V96.5z"/>
					<path fill="#FFFFFF" d="M699.9,109.1h-1.9V95h1.9V109.1z"/>
					<path fill="#FFFFFF" d="M714.2,109.1h-1.9l-6.8-11l-0.1,0v10.9h-1.9V95h1.9l6.8,10.9l0.1,0V95h1.9V109.1z"/>
					<path fill="#FFFFFF" d="M728,107.3c-0.3,0.5-0.9,1-1.8,1.4c-0.8,0.4-1.9,0.7-3.2,0.7c-1.7,0-3.1-0.5-4.2-1.6s-1.7-2.5-1.7-4.2
						v-2.9c0-1.7,0.5-3.1,1.5-4.2c1-1.1,2.4-1.6,4-1.6c1.6,0,2.9,0.4,3.8,1.2c0.9,0.8,1.4,1.8,1.4,3.1l0,0.1H726
						c-0.1-0.8-0.4-1.5-0.9-2c-0.6-0.5-1.4-0.8-2.5-0.8c-1.1,0-2,0.4-2.6,1.2c-0.7,0.8-1,1.8-1,3.1v2.9c0,1.3,0.4,2.3,1.1,3.1
						c0.7,0.8,1.7,1.2,2.8,1.2c0.8,0,1.5-0.1,2-0.3c0.5-0.2,0.9-0.5,1.1-0.7v-3.2h-3.1v-1.5h5V107.3z"/>
				</g>
			</g>
			<g>
				<rect x="746.7" y="85" fill="#B369E8" width="50" height="33"/>
				<g>
					<path fill="#FFFFFF" d="M762.4,105.6c0-0.6-0.2-1.2-0.7-1.6c-0.5-0.4-1.3-0.8-2.6-1.1c-1.5-0.4-2.7-0.9-3.5-1.6
						c-0.8-0.7-1.3-1.6-1.3-2.6c0-1.1,0.5-2,1.4-2.8c0.9-0.7,2.1-1.1,3.5-1.1c1.5,0,2.8,0.4,3.7,1.3c0.9,0.9,1.4,1.8,1.3,3l0,0.1
						h-1.8c0-0.8-0.3-1.5-0.8-2s-1.3-0.8-2.4-0.8c-1,0-1.7,0.2-2.2,0.6c-0.5,0.4-0.8,1-0.8,1.7c0,0.6,0.3,1.1,0.8,1.5
						c0.6,0.4,1.4,0.8,2.7,1.1c1.5,0.4,2.6,0.9,3.4,1.6c0.8,0.7,1.2,1.6,1.2,2.7c0,1.1-0.5,2.1-1.4,2.8c-0.9,0.7-2.2,1-3.7,1
						c-1.4,0-2.7-0.4-3.8-1.2c-1.1-0.8-1.6-1.8-1.6-3.1l0-0.1h1.8c0,0.9,0.3,1.6,1,2.1c0.7,0.5,1.5,0.7,2.5,0.7c1,0,1.7-0.2,2.3-0.6
						S762.4,106.3,762.4,105.6z"/>
					<path fill="#FFFFFF" d="M775.5,102.6H769v5.1h7.5v1.5h-9.4V95h9.3v1.5H769v4.6h6.5V102.6z"/>
					<path fill="#FFFFFF" d="M789.4,103.3c0,1.7-0.5,3.2-1.6,4.3c-1.1,1.1-2.5,1.7-4.2,1.7c-1.7,0-3-0.6-4-1.7
						c-1-1.1-1.6-2.6-1.6-4.3v-2.5c0-1.7,0.5-3.2,1.6-4.3c1-1.1,2.4-1.7,4-1.7c1.7,0,3.1,0.6,4.2,1.7c1.1,1.1,1.6,2.6,1.6,4.3V103.3
						z M787.5,100.8c0-1.3-0.4-2.4-1.1-3.2c-0.7-0.8-1.6-1.2-2.8-1.2c-1.1,0-2,0.4-2.7,1.2c-0.7,0.8-1,1.9-1,3.2v2.5
						c0,1.3,0.3,2.4,1,3.2c0.7,0.8,1.6,1.2,2.7,1.2c1.2,0,2.1-0.4,2.8-1.2c0.7-0.8,1-1.9,1-3.2V100.8z"/>
				</g>
			</g>
		</g>
		<rect x="370.1" y="144.6" fill="#F5D427" width="109.8" height="270.5"/>
		<g>
			<g>
				<line fill="none" stroke="#4F4F4F" stroke-width="2" stroke-miterlimit="10" x1="60.5" y1="131.3" x2="789.5" y2="131.3"/>
				<g>
					<polygon fill="#4F4F4F" points="62,136.2 53.3,131.3 62,126.3 					"/>
				</g>
				<g>
					<polygon fill="#4F4F4F" points="788,136.2 796.7,131.3 788,126.3 					"/>
				</g>
			</g>
		</g>
		<g>
			<g>
				<line fill="none" stroke="#4F4F4F" stroke-width="2" stroke-miterlimit="10" x1="508.3" y1="131.3" x2="508.3" y2="407.4"/>
				<g>
					<polygon fill="#4F4F4F" points="503.3,406 508.3,414.6 513.3,406 					"/>
				</g>
			</g>
		</g>
	</g>
</g>
</svg>
